<svg xmlns="http://www.w3.org/2000/svg" width="400" height="300" viewBox="0 0 400 300">
  <rect width="400" height="300" fill="#0f2b46"/>
  <rect x="150" y="60" width="100" height="140" rx="10" fill="none" stroke="#4fc3f7" stroke-width="2" opacity="0.5"/>
  <line x1="160" y1="80" x2="240" y2="80" stroke="#4fc3f7" stroke-width="1" opacity="0.3"/>
  <line x1="160" y1="100" x2="240" y2="100" stroke="#4fc3f7" stroke-width="1" opacity="0.3"/>
  <line x1="160" y1="120" x2="240" y2="120" stroke="#4fc3f7" stroke-width="1" opacity="0.3"/>
  <line x1="160" y1="140" x2="240" y2="140" stroke="#4fc3f7" stroke-width="1" opacity="0.3"/>
  <line x1="160" y1="160" x2="240" y2="160" stroke="#4fc3f7" stroke-width="1" opacity="0.3"/>
  <circle cx="180" cy="90" r="5" fill="#ff8a65" opacity="0.6"/>
  <circle cx="210" cy="110" r="4" fill="#ff8a65" opacity="0.6"/>
  <circle cx="195" cy="150" r="6" fill="#ff8a65" opacity="0.4"/>
  <circle cx="225" cy="130" r="3" fill="#ff8a65" opacity="0.5"/>
  <path d="M 260 100 Q 270 80 260 60" fill="none" stroke="#81d4fa" stroke-width="1.5" opacity="0.5"/>
  <path d="M 260 130 Q 275 110 265 90" fill="none" stroke="#81d4fa" stroke-width="1.5" opacity="0.5"/>
  <path d="M 140 100 Q 130 80 140 60" fill="none" stroke="#81d4fa" stroke-width="1.5" opacity="0.5"/>
  <text x="200" y="235" text-anchor="middle" fill="#e0f7fa" font-size="18" font-family="sans-serif">膜蒸发器增效剂</text>
  <text x="200" y="260" text-anchor="middle" fill="#80cbc4" font-size="12" font-family="sans-serif">分离高沸点有机物 · 降本增效</text>
</svg>
